<?xml version="1.0" encoding="utf-8"?>
<!-- Generator: Adobe Illustrator 17.0.0, SVG Export Plug-In . SVG Version: 6.00 Build 0)  -->
<!DOCTYPE svg PUBLIC "-//W3C//DTD SVG 1.1//EN" "http://www.w3.org/Graphics/SVG/1.1/DTD/svg11.dtd">
<svg version="1.1" id="Capa_1" xmlns="http://www.w3.org/2000/svg" xmlns:xlink="http://www.w3.org/1999/xlink" x="0px" y="0px"
	 width="340px" height="261px" viewBox="19.445 -18.86 340 261" enable-background="new 19.445 -18.86 340 261"
	 xml:space="preserve">
<g>
	<path fill="#FFFFFF" d="M331.302,15.898l0.001-0.022l-0.014-0.006c-5.608-12.624-18.203-21.449-32.818-21.449H111.86
		c-3.24,0-6.378,0.441-9.366,1.253l-0.018,0l-0.005,0.007C87.199-0.157,75.929,13.895,75.929,30.551v103.123
		c0,6.889,1.929,13.332,5.27,18.816v0.005l0.005,0.003c6.322,10.371,17.697,17.306,30.655,17.306h9.532v40.379
		c0,2.052,1.183,3.918,3.034,4.783c0.706,0.33,1.461,0.492,2.21,0.492c1.215,0,2.418-0.424,3.382-1.242l52.388-44.412h116.064
		c19.812-0.001,35.93-16.208,35.93-36.131V30.551C334.401,25.336,333.288,20.38,331.302,15.898z"/>
	<g>
		<path fill="#00C5D5" d="M124.426,214.967c-1.851-0.865-3.034-2.73-3.034-4.783v-40.379h-9.532c-19.812,0-35.93-16.208-35.93-36.13
			V30.551c0-19.922,16.118-36.13,35.93-36.13h186.611c19.812,0,35.93,16.208,35.93,36.13v103.123
			c0,19.922-16.118,36.13-35.93,36.131H182.407l-52.388,44.412c-0.965,0.818-2.167,1.242-3.382,1.242
			C125.887,215.459,125.132,215.297,124.426,214.967z M111.86,4.971c-14.027,0-25.439,11.475-25.439,25.58v103.123
			c0,14.105,11.412,25.58,25.439,25.58h14.778c2.897,0,5.246,2.362,5.246,5.275v34.308l45.226-38.341
			c0.947-0.802,2.144-1.242,3.382-1.242h117.98c14.027,0,25.439-11.476,25.439-25.58V30.551c0-14.105-11.412-25.58-25.439-25.58
			C298.471,4.971,111.86,4.971,111.86,4.971z"/>
	</g>
	<g>
		<g>
			<path fill="#00C5D5" d="M115.433,47.81c0-2.913,2.348-5.275,5.245-5.275h168.975c2.897,0,5.245,2.362,5.245,5.275
				c0,2.913-2.348,5.275-5.245,5.275H120.678C117.781,53.085,115.433,50.723,115.433,47.81z"/>
		</g>
		<g>
			<path fill="#00C5D5" d="M115.433,81.587c0-2.913,2.348-5.275,5.245-5.275h168.975c2.897,0,5.245,2.362,5.245,5.275
				c0,2.913-2.348,5.275-5.245,5.275H120.678C117.781,86.862,115.433,84.5,115.433,81.587z"/>
		</g>
		<g>
			<path fill="#00C5D5" d="M115.433,115.365c0-2.914,2.348-5.275,5.245-5.275h168.975c2.897,0,5.245,2.362,5.245,5.275
				c0,2.913-2.348,5.275-5.245,5.275H120.678C117.781,120.64,115.433,118.278,115.433,115.365z"/>
		</g>
	</g>
</g>
<g>
	<path fill="#FFFFFF" d="M281.302,30.825l0.001-0.022l-0.014-0.006c-5.608-12.624-18.203-21.449-32.818-21.449H61.86
		c-3.24,0-6.378,0.441-9.366,1.253l-0.018,0l-0.005,0.007C37.199,14.77,25.929,28.822,25.929,45.478v103.123
		c0,6.889,1.929,13.332,5.27,18.816v0.005l0.005,0.003c6.322,10.371,17.697,17.306,30.655,17.306h9.532v40.379
		c0,2.052,1.183,3.918,3.034,4.783c0.706,0.33,1.461,0.492,2.21,0.492c1.215,0,2.418-0.424,3.382-1.242l52.388-44.412h116.064
		c19.812-0.001,35.93-16.208,35.93-36.131V45.478C284.401,40.263,283.288,35.307,281.302,30.825z"/>
	<g>
		<path fill="#00C5D5" d="M74.426,229.893c-1.851-0.865-3.034-2.73-3.034-4.783v-40.379H61.86c-19.812,0-35.93-16.208-35.93-36.13
			V45.478c0-19.922,16.118-36.13,35.93-36.13h186.611c19.812,0,35.93,16.208,35.93,36.13v103.123
			c0,19.922-16.118,36.13-35.93,36.131H132.407l-52.388,44.412c-0.965,0.818-2.167,1.242-3.382,1.242
			C75.887,230.385,75.132,230.223,74.426,229.893z M61.86,19.898c-14.027,0-25.439,11.475-25.439,25.58v103.123
			c0,14.105,11.412,25.58,25.439,25.58h14.778c2.897,0,5.246,2.362,5.246,5.275v34.308l45.226-38.341
			c0.947-0.802,2.144-1.242,3.382-1.242h117.98c14.027,0,25.439-11.476,25.439-25.58V45.478c0-14.105-11.412-25.58-25.439-25.58
			C248.471,19.898,61.86,19.898,61.86,19.898z"/>
	</g>
	<g>
		<g>
			<path fill="#00C5D5" d="M65.433,62.737c0-2.913,2.348-5.275,5.245-5.275h168.975c2.897,0,5.245,2.362,5.245,5.275
				c0,2.913-2.348,5.275-5.245,5.275H70.678C67.781,68.012,65.433,65.649,65.433,62.737z"/>
		</g>
		<g>
			<path fill="#00C5D5" d="M65.433,96.514c0-2.913,2.348-5.275,5.245-5.275h168.975c2.897,0,5.245,2.362,5.245,5.275
				c0,2.913-2.348,5.275-5.245,5.275H70.678C67.781,101.789,65.433,99.427,65.433,96.514z"/>
		</g>
		<g>
			<path fill="#00C5D5" d="M65.433,130.292c0-2.914,2.348-5.275,5.245-5.275h168.975c2.897,0,5.245,2.362,5.245,5.275
				c0,2.913-2.348,5.275-5.245,5.275H70.678C67.781,135.567,65.433,133.205,65.433,130.292z"/>
		</g>
	</g>
</g>
</svg>
